<svg xmlns="http://www.w3.org/2000/svg" viewBox="0 0 21.55 25.47"><polygon points="1.21 0.5 13.44 12.74 1.21 24.97 2.61 24.97 14.84 12.74 2.6 0.5 1.21 0.5" fill="currentColor"/><polygon points="0 0 12.74 12.74 0 25.47 2.81 25.47 14.14 14.14 15.55 12.74 2.81 0 0 0" fill="currentColor"/><polygon points="7.21 0.5 19.44 12.74 7.21 24.97 8.61 24.97 20.84 12.74 8.6 0.5 7.21 0.5" fill="currentColor"/><polygon points="6 0 18.74 12.74 6 25.47 8.81 25.47 20.14 14.14 21.55 12.74 8.81 0 6 0" fill="currentColor"/></svg>