<svg xmlns="http://www.w3.org/2000/svg" viewBox="0 0 13.48 11.33"><polygon points="6.21 0.5 11.37 5.67 6.21 10.83 7.61 10.83 12.77 5.67 7.6 0.5 6.21 0.5" fill="currentColor"/><polygon points="5 0 10.66 5.67 5 11.33 7.81 11.33 12.07 7.07 13.48 5.67 13.48 5.67 12.07 4.26 7.81 0 5 0" fill="currentColor"/><polygon points="1.21 0.5 6.37 5.67 1.21 10.83 2.61 10.83 7.77 5.67 2.6 0.5 1.21 0.5" fill="currentColor"/><polygon points="0 0 5.67 5.67 0 11.33 2.81 11.33 7.07 7.07 8.48 5.67 7.07 4.26 2.81 0 0 0" fill="currentColor"/></svg>