<svg xmlns="http://www.w3.org/2000/svg" xmlns:xlink="http://www.w3.org/1999/xlink" viewBox="0 0 32.63 32.63"><path d="M32.63,16.31A16.32,16.32,0,1,1,16.32,0,16.32,16.32,0,0,1,32.63,16.31" transform="translate(0 0)" fill="currentColor"/><path d="M20.29,8.53a5.44,5.44,0,0,0-3.91-1.36A5.7,5.7,0,0,0,12.47,8.5,4.58,4.58,0,0,0,10.91,12a.41.41,0,0,0,.4.4h2.28A.4.4,0,0,0,14,12a1.88,1.88,0,0,1,.63-1.49A2.59,2.59,0,0,1,16.38,10a2.13,2.13,0,0,1,1.68.61,2.49,2.49,0,0,1,.58,1.75,3.32,3.32,0,0,1-.93,2.24l-1.62,1.67a6.12,6.12,0,0,0-1.34,2,7.82,7.82,0,0,0-.36,2.44.4.4,0,0,0,.12.29.42.42,0,0,0,.28.12h2.28a.4.4,0,0,0,.4-.4,3.82,3.82,0,0,1,.78-2.59l1.36-1.34a6.6,6.6,0,0,0,2.11-4.52,4.93,4.93,0,0,0-1.43-3.72" fill="#fff"/><path d="M15.93,22.38a1.54,1.54,0,1,0,1.54,1.54,1.54,1.54,0,0,0-1.54-1.54" fill="#fff"/></svg>