<svg xmlns="http://www.w3.org/2000/svg" xmlns:xlink="http://www.w3.org/1999/xlink" viewBox="0 0 30.94 32.09"><path d="M29.51,26l-6.34-6a1.65,1.65,0,0,0-2.16,0l-1.52,1.44a3.48,3.48,0,0,1-4.36-.56L10.72,16c-1.22-1.59-1.21-3-.25-4.06.4-.35,1.39-1.43,1.78-1.78a1.61,1.61,0,0,0,.53-1.11,1.66,1.66,0,0,0-.39-1.15L6.85.67A1.66,1.66,0,0,0,5.62,0,1.64,1.64,0,0,0,4.28.59L4.17.71C2.83,2.34,0,4.61,0,8.43c.11,7.85,14.26,23.2,21.13,23.64,2.13.14,4.23-.38,8.2-3.58A1.64,1.64,0,0,0,30,27.26,1.61,1.61,0,0,0,29.51,26" fill="currentColor"/><path d="M30.5,6.23H26.83c-.24,0-.44-.27-.44-.6V3c0-.49-.41-.77-.71-.49l-7.5,7.17a.73.73,0,0,0,0,1l7.5,7.17c.3.29.71,0,.71-.49V14.72c0-.34.2-.61.44-.61H30.5c.24,0,.44-.27.44-.6V6.83c0-.33-.2-.6-.44-.6" fill="currentColor"/></svg>