<svg xmlns="http://www.w3.org/2000/svg" xmlns:xlink="http://www.w3.org/1999/xlink" viewBox="0 0 19 22"><path d="M16.88,1A1,1,0,0,1,18,2v18.1a1,1,0,0,1-1.12.95H2.12A1,1,0,0,1,1,20.05v-14L6,1H16.88m0-1H5.63L0,5.67V20.05A2,2,0,0,0,2.12,22H16.88A2,2,0,0,0,19,20.05V2A2,2,0,0,0,16.88,0" fill="currentColor"/><polygon points="5.86 5.77 0.6 5.83 3.26 3.18 5.86 0.58 5.86 5.77" fill="none" stroke="currentColor" stroke-linejoin="round"/><rect x="9" y="7" width="1" height="9" fill="currentColor"/><rect x="5" y="11" width="9" height="1" fill="currentColor"/></svg>