<svg xmlns="http://www.w3.org/2000/svg" xmlns:xlink="http://www.w3.org/1999/xlink" viewBox="0 0 30.75 31.48"><path d="M0,2.88V20.13A2.88,2.88,0,0,0,2.88,23H5.75a1.73,1.73,0,0,1,1.73,1.73v5.08a1.63,1.63,0,0,0,1.15,1.6,1.54,1.54,0,0,0,1.72-.57l7.23-7.12A1.72,1.72,0,0,1,19,23h8.9a2.87,2.87,0,0,0,2.87-2.87V2.88A2.87,2.87,0,0,0,27.88,0h-25A2.88,2.88,0,0,0,0,2.88" fill="currentColor"/><path d="M13.05,16.28,9.29,12.53a.82.82,0,0,1,0-1.16l1-1a.82.82,0,0,1,1.16,0L13.05,12a.82.82,0,0,0,1.16,0l5.13-5.13a.82.82,0,0,1,1.16,0l1,1a.82.82,0,0,1,0,1.16l-7.25,7.25a.82.82,0,0,1-1.16,0" fill="#fff"/></svg>