<svg xmlns="http://www.w3.org/2000/svg" xmlns:xlink="http://www.w3.org/1999/xlink" viewBox="0 0 19.49 20.85"><path d="M19.17,16.9,15.05,13a1,1,0,0,0-.65-.27,1,1,0,0,0-.75.25l-1,.93a2.26,2.26,0,0,1-2.83-.36L7,10.42c-.79-1-.78-1.93-.16-2.63.26-.23.9-.93,1.16-1.16a1.07,1.07,0,0,0,.34-.72,1,1,0,0,0-.25-.75L4.45.43A1.09,1.09,0,0,0,3.65,0a1.08,1.08,0,0,0-.87.38L2.71.46C1.84,1.52,0,3,0,5.48c.07,5.1,9.26,15.07,13.73,15.36,1.38.09,2.75-.25,5.32-2.33a1.07,1.07,0,0,0,.44-.8,1,1,0,0,0-.32-.81" fill="currentColor"/><path d="M15.37,9.59h0a.48.48,0,0,1-.7,0l-3.59-4a.48.48,0,0,1,0-.7.5.5,0,0,1,.71,0l3.58,4a.48.48,0,0,1,0,.7" fill="currentColor"/><path d="M18.09,9h0a.5.5,0,0,1-.7,0L12,2.9a.5.5,0,1,1,.74-.66l5.37,6a.5.5,0,0,1,0,.71" fill="currentColor"/></svg>