<svg xmlns="http://www.w3.org/2000/svg" xmlns:xlink="http://www.w3.org/1999/xlink" viewBox="0 0 20.49 21.85"><path d="M19.67,17.4l-4.12-3.92a1,1,0,0,0-.65-.27,1,1,0,0,0-.75.25l-1,.93A2.26,2.26,0,0,1,10.33,14L7.46,10.92c-.79-1-.78-1.93-.16-2.63.26-.23.9-.93,1.16-1.16a1.07,1.07,0,0,0,.34-.72,1,1,0,0,0-.25-.75L5,.93A1.09,1.09,0,0,0,4.15.5a1.08,1.08,0,0,0-.87.38L3.21,1C2.34,2,.47,3.5.5,6c.07,5.1,9.26,15.07,13.73,15.36,1.38.09,2.75-.25,5.32-2.33a1.07,1.07,0,0,0,.44-.8A1,1,0,0,0,19.67,17.4Z" fill="none" stroke="currentColor" stroke-miterlimit="10"/><path d="M17.23,9.4h0a.5.5,0,0,1-.7,0l-3.59-4a.5.5,0,0,1,0-.71.51.51,0,0,1,.71,0l3.58,4a.5.5,0,0,1,0,.71" fill="currentColor"/><path d="M20,8.76h0a.48.48,0,0,1-.7,0l-5.37-6A.5.5,0,1,1,14.62,2l5.37,6a.48.48,0,0,1,0,.7" fill="currentColor"/></svg>