<svg xmlns="http://www.w3.org/2000/svg" xmlns:xlink="http://www.w3.org/1999/xlink" viewBox="0 0 21.21 21.2"><path d="M17.8,3.41a10,10,0,0,0-17,7,9.85,9.85,0,0,0,1.33,4.95L.71,20.5,6,19.12a10,10,0,0,0,4.76,1.21h0a10,10,0,0,0,10-9.91A9.82,9.82,0,0,0,17.8,3.41ZM16.23,13.88a2.74,2.74,0,0,1-1.78,1.25A3.74,3.74,0,0,1,12.79,15a14.41,14.41,0,0,1-1.51-.55,11.69,11.69,0,0,1-4.51-4A5.07,5.07,0,0,1,5.69,7.78a2.94,2.94,0,0,1,.93-2.19,1,1,0,0,1,.7-.33h.51c.16,0,.38-.06.59.45s.75,1.82.82,2a.5.5,0,0,1,0,.46A1.53,1.53,0,0,1,9,8.57,4.9,4.9,0,0,1,8.6,9c-.13.13-.27.28-.12.54A8.42,8.42,0,0,0,10,11.39a7.33,7.33,0,0,0,2.12,1.3c.27.14.42.11.58-.06s.66-.77.83-1,.35-.22.6-.13,1.54.72,1.8.85.44.2.51.31A2.28,2.28,0,0,1,16.23,13.88Z" fill="none" stroke="currentColor" stroke-miterlimit="10"/></svg>