<svg xmlns="http://www.w3.org/2000/svg" xmlns:xlink="http://www.w3.org/1999/xlink" viewBox="0 0 24.92 17.51"><path d="M12.62,17.51c-2.8-.08-5.46-.15-8.13-.26A9,9,0,0,1,2.78,17,2.86,2.86,0,0,1,.63,15.1a10.33,10.33,0,0,1-.49-2.57A50.49,50.49,0,0,1,.05,6.38,15.4,15.4,0,0,1,.44,2.93a3.51,3.51,0,0,1,1-1.81,3.11,3.11,0,0,1,2-.86C5.51.16,7.6,0,9.7,0c2.83,0,5.65,0,8.48.06a34.43,34.43,0,0,1,3.66.25,2.85,2.85,0,0,1,2.38,1.84,8.49,8.49,0,0,1,.54,2.58,49.06,49.06,0,0,1,.09,6.64,14,14,0,0,1-.43,3.34A3.09,3.09,0,0,1,22,17.09a8.75,8.75,0,0,1-1.54.17l-7.85.25M9.91,11.94l6.7-3.48L9.91,5Z" fill="currentColor"/></svg>