<svg xmlns="http://www.w3.org/2000/svg" xmlns:xlink="http://www.w3.org/1999/xlink" width="30" height="37.78" viewBox="0 0 30 37.78"><defs><clipPath id="a" transform="translate(0 0)"><rect width="30" height="37.78" fill="none"/></clipPath></defs><g clip-path="url(#a)"><path d="M8.89,0,0,8.89V34.43a3.35,3.35,0,0,0,3.35,3.35H26.66A3.35,3.35,0,0,0,30,34.43V3.35A3.35,3.35,0,0,0,26.66,0Z" transform="translate(0 0)" fill="#ea5703"/><polygon points="8.89 8.89 0 8.89 4.45 4.45 8.89 0 8.89 8.89" fill="#c94300"/><path d="M21.55,26.46H8.45a.76.76,0,0,1,0-1.52h13.1a.76.76,0,0,1,0,1.52" transform="translate(0 0)" fill="#fff"/><path d="M18,19.1a.75.75,0,0,0-.7-.47H15.76V12.08a.76.76,0,1,0-1.52,0v6.55H12.72a.76.76,0,0,0-.53,1.3l2.27,2.27a.67.67,0,0,0,.25.16.73.73,0,0,0,.58,0,.67.67,0,0,0,.25-.16l2.27-2.27A.75.75,0,0,0,18,19.1" transform="translate(0 0)" fill="#fff"/></g></svg>