<svg xmlns="http://www.w3.org/2000/svg" xmlns:xlink="http://www.w3.org/1999/xlink" width="30" height="37.78" viewBox="0 0 30 37.78"><defs><clipPath id="a" transform="translate(0 0)"><rect width="30" height="37.78" fill="none"/></clipPath></defs><g clip-path="url(#a)"><path d="M8.89,0,0,8.89V34.43a3.35,3.35,0,0,0,3.35,3.35H26.66A3.35,3.35,0,0,0,30,34.43V3.35A3.35,3.35,0,0,0,26.66,0Z" transform="translate(0 0)" fill="#ea5703"/><polygon points="8.89 8.89 0 8.89 4.45 4.45 8.89 0 8.89 8.89" fill="#c94300"/><path d="M23,15a2.29,2.29,0,0,0-.76-.13.79.79,0,0,0-.57.17,1,1,0,0,0-.15.61v.55h1.16v1.12H21.53V22H20.12V17.36H19.4V16.24h.72v-.55a2,2,0,0,1,.53-1.54,2.33,2.33,0,0,1,1.58-.47,4.55,4.55,0,0,1,1.06.14Zm-5.9,6.35a3.34,3.34,0,0,1-.83.53,2.4,2.4,0,0,1-1,.2,1.92,1.92,0,0,1-1.65-.78,3.67,3.67,0,0,1-.57-2.2,3.59,3.59,0,0,1,.63-2.26,2.13,2.13,0,0,1,1.77-.8,2.32,2.32,0,0,1,.83.17,2.29,2.29,0,0,1,.7.42V13.85h1.41V22h-1.3ZM17,17.83a2,2,0,0,0-.55-.36,1.64,1.64,0,0,0-.68-.15,1.07,1.07,0,0,0-.91.48,2.27,2.27,0,0,0-.34,1.32,2.47,2.47,0,0,0,.28,1.29,1,1,0,0,0,.87.47,1.87,1.87,0,0,0,.71-.16,2.28,2.28,0,0,0,.62-.4Zm-6,3.92a2.11,2.11,0,0,1-1.24.37,2.35,2.35,0,0,1-1.62-.6V24.1H6.71V16.24H8v.56a3.53,3.53,0,0,1,.83-.53,2.41,2.41,0,0,1,1-.19,1.93,1.93,0,0,1,1.65.76,3.66,3.66,0,0,1,.57,2.21,4.52,4.52,0,0,1-.28,1.63,2.39,2.39,0,0,1-.8,1.07m-.66-4a1,1,0,0,0-.87-.46,1.8,1.8,0,0,0-.7.15,2.34,2.34,0,0,0-.63.4v2.5a2.33,2.33,0,0,0,.56.35,1.48,1.48,0,0,0,.68.16,1,1,0,0,0,.91-.5,2.28,2.28,0,0,0,.34-1.3,2.48,2.48,0,0,0-.29-1.3" transform="translate(0 0)" fill="#fff" fill-rule="evenodd"/></g></svg>