<svg width="0" height="0" class="hidden">
  <symbol xmlns="http://www.w3.org/2000/svg" viewBox="0 0 15.55 25.47" id="ic_arr_hor">
    <polygon points="1.21 0.5 2.6 0.5 14.84 12.74 14.14 13.44 1.21 0.5" fill="currentColor"></polygon>
    <polygon points="0 0 14.14 14.14 15.55 12.74 2.81 0 0 0" fill="currentColor"></polygon>
    <polygon points="1.21 24.97 2.61 24.97 14.84 12.74 14.14 12.04 1.21 24.97" fill="currentColor"></polygon>
    <polygon points="0 25.47 2.81 25.47 15.55 12.74 14.14 11.33 0 25.47" fill="currentColor"></polygon>
  </symbol>
  <symbol xmlns="http://www.w3.org/2000/svg" viewBox="0 0 13.48 11.33" id="ic_arrs_hor">
    <polygon points="6.21 0.5 11.37 5.67 6.21 10.83 7.61 10.83 12.77 5.67 7.6 0.5 6.21 0.5" fill="currentColor"></polygon>
    <polygon points="5 0 10.66 5.67 5 11.33 7.81 11.33 12.07 7.07 13.48 5.67 13.48 5.67 12.07 4.26 7.81 0 5 0" fill="currentColor"></polygon>
    <polygon points="1.21 0.5 6.37 5.67 1.21 10.83 2.61 10.83 7.77 5.67 2.6 0.5 1.21 0.5" fill="currentColor"></polygon>
    <polygon points="0 0 5.67 5.67 0 11.33 2.81 11.33 7.07 7.07 8.48 5.67 7.07 4.26 2.81 0 0 0" fill="currentColor"></polygon>
  </symbol>
  <symbol xmlns="http://www.w3.org/2000/svg" viewBox="0 0 21.55 25.47" id="ic_arrs_hor_big">
    <polygon points="1.21 0.5 13.44 12.74 1.21 24.97 2.61 24.97 14.84 12.74 2.6 0.5 1.21 0.5" fill="currentColor"></polygon>
    <polygon points="0 0 12.74 12.74 0 25.47 2.81 25.47 14.14 14.14 15.55 12.74 2.81 0 0 0" fill="currentColor"></polygon>
    <polygon points="7.21 0.5 19.44 12.74 7.21 24.97 8.61 24.97 20.84 12.74 8.6 0.5 7.21 0.5" fill="currentColor"></polygon>
    <polygon points="6 0 18.74 12.74 6 25.47 8.81 25.47 20.14 14.14 21.55 12.74 8.81 0 6 0" fill="currentColor"></polygon>
  </symbol>
  <symbol xmlns="http://www.w3.org/2000/svg" xmlns:xlink="http://www.w3.org/1999/xlink" viewBox="0 0 30.94 32.09" id="ic_callback">
    <path d="M29.51,26l-6.34-6a1.65,1.65,0,0,0-2.16,0l-1.52,1.44a3.48,3.48,0,0,1-4.36-.56L10.72,16c-1.22-1.59-1.21-3-.25-4.06.4-.35,1.39-1.43,1.78-1.78a1.61,1.61,0,0,0,.53-1.11,1.66,1.66,0,0,0-.39-1.15L6.85.67A1.66,1.66,0,0,0,5.62,0,1.64,1.64,0,0,0,4.28.59L4.17.71C2.83,2.34,0,4.61,0,8.43c.11,7.85,14.26,23.2,21.13,23.64,2.13.14,4.23-.38,8.2-3.58A1.64,1.64,0,0,0,30,27.26,1.61,1.61,0,0,0,29.51,26" fill="currentColor"></path>
    <path d="M30.5,6.23H26.83c-.24,0-.44-.27-.44-.6V3c0-.49-.41-.77-.71-.49l-7.5,7.17a.73.73,0,0,0,0,1l7.5,7.17c.3.29.71,0,.71-.49V14.72c0-.34.2-.61.44-.61H30.5c.24,0,.44-.27.44-.6V6.83c0-.33-.2-.6-.44-.6" fill="currentColor"></path>
  </symbol>
  <symbol xmlns="http://www.w3.org/2000/svg" xmlns:xlink="http://www.w3.org/1999/xlink" viewBox="0 0 11.59 8.38" id="ic_check">
    <polygon points="4.67 6.17 1.46 2.96 0.71 3.72 3.91 6.92 4.67 7.68 5.42 6.92 10.88 1.46 10.13 0.71 4.67 6.17" fill="currentColor"></polygon>
    <polygon points="10.13 0.71 4.67 6.17 1.46 2.96 0.71 3.72 3.91 6.92 4.67 7.68 5.42 6.92 10.88 1.46 10.13 0.71" fill="none" stroke="currentColor" stroke-miterlimit="10"></polygon>
  </symbol>
  <symbol xmlns="http://www.w3.org/2000/svg" viewBox="0 0 16.97 16.97" id="ic_close">
    <rect x="-3.01" y="7.99" width="23" height="1" transform="translate(-3.51 8.48) rotate(-45)" fill="currentColor"></rect>
    <rect x="7.99" y="-3.02" width="1" height="23" transform="translate(-3.51 8.48) rotate(-44.96)" fill="currentColor"></rect>
  </symbol>
  <symbol xmlns="http://www.w3.org/2000/svg" xmlns:xlink="http://www.w3.org/1999/xlink" viewBox="0 0 32.63 32.63" id="ic_consult">
    <path d="M32.63,16.31A16.32,16.32,0,1,1,16.32,0,16.32,16.32,0,0,1,32.63,16.31" transform="translate(0 0)" fill="currentColor"></path>
    <path d="M20.29,8.53a5.44,5.44,0,0,0-3.91-1.36A5.7,5.7,0,0,0,12.47,8.5,4.58,4.58,0,0,0,10.91,12a.41.41,0,0,0,.4.4h2.28A.4.4,0,0,0,14,12a1.88,1.88,0,0,1,.63-1.49A2.59,2.59,0,0,1,16.38,10a2.13,2.13,0,0,1,1.68.61,2.49,2.49,0,0,1,.58,1.75,3.32,3.32,0,0,1-.93,2.24l-1.62,1.67a6.12,6.12,0,0,0-1.34,2,7.82,7.82,0,0,0-.36,2.44.4.4,0,0,0,.12.29.42.42,0,0,0,.28.12h2.28a.4.4,0,0,0,.4-.4,3.82,3.82,0,0,1,.78-2.59l1.36-1.34a6.6,6.6,0,0,0,2.11-4.52,4.93,4.93,0,0,0-1.43-3.72" fill="#fff"></path>
    <path d="M15.93,22.38a1.54,1.54,0,1,0,1.54,1.54,1.54,1.54,0,0,0-1.54-1.54" fill="#fff"></path>
  </symbol>
  <symbol xmlns="http://www.w3.org/2000/svg" xmlns:xlink="http://www.w3.org/1999/xlink" viewBox="0 0 24 18" id="ic_email">
    <path d="M22,1a1,1,0,0,1,1,1V16a1,1,0,0,1-1,1H2a1,1,0,0,1-1-1V2A1,1,0,0,1,2,1H22m0-1H2A2,2,0,0,0,0,2V16a2,2,0,0,0,2,2H22a2,2,0,0,0,2-2V2a2,2,0,0,0-2-2" fill="currentColor"></path>
    <path d="M.85,1.05l9.67,8.4a2.1,2.1,0,0,0,2.83,0L23,1.05" fill="none" stroke="currentColor" stroke-miterlimit="10"></path>
  </symbol>
  <symbol xmlns="http://www.w3.org/2000/svg" xmlns:xlink="http://www.w3.org/1999/xlink" viewBox="0 0 10.49 8.4" id="ic_email2">
    <path d="M5.7,5.17v0a.5.5,0,0,1-.17.11h0l-.1,0h0l-.1,0h0a.62.62,0,0,1-.17-.11s0,0,0,0l-.45-.42L.7,8.34A1.14,1.14,0,0,0,1,8.4H9.47a1.13,1.13,0,0,0,.32-.06L6,4.87Z" fill="currentColor"></path>
    <path d="M.09.61A1,1,0,0,0,0,1V7.37a1,1,0,0,0,.08.38L4,4.17Z" fill="currentColor"></path>
    <path d="M9.93.11A1,1,0,0,0,9.47,0H1A1.26,1.26,0,0,0,.75,0L5.37,4.31Z" fill="currentColor"></path>
    <path d="M10.46.78,6.66,4.29l3.76,3.46a1,1,0,0,0,.07-.38V1a1,1,0,0,0,0-.25" fill="currentColor"></path>
  </symbol>
  <symbol xmlns="http://www.w3.org/2000/svg" xmlns:xlink="http://www.w3.org/1999/xlink" viewBox="0 0 18 18" id="ic_error">
    <path d="M9,18H9a9,9,0,1,1,9-9,9,9,0,0,1-9,9" fill="currentColor"></path>
    <path d="M9.5,11.5h-1A.5.5,0,0,1,8,11V3a.5.5,0,0,1,.5-.5h1A.5.5,0,0,1,10,3v8a.5.5,0,0,1-.5.5" transform="translate(0)" fill="#fff"></path>
    <path d="M9.5,15.5h-1A.5.5,0,0,1,8,15V14a.5.5,0,0,1,.5-.5h1a.5.5,0,0,1,.5.5v1a.5.5,0,0,1-.5.5" fill="#fff"></path>
  </symbol>
  <symbol xmlns="http://www.w3.org/2000/svg" xmlns:xlink="http://www.w3.org/1999/xlink" viewBox="0 0 19 22" id="ic_file">
    <path d="M16.88,1A1,1,0,0,1,18,2v18.1a1,1,0,0,1-1.12.95H2.12A1,1,0,0,1,1,20.05v-14L6,1H16.88m0-1H5.63L0,5.67V20.05A2,2,0,0,0,2.12,22H16.88A2,2,0,0,0,19,20.05V2A2,2,0,0,0,16.88,0" fill="currentColor"></path>
    <polygon points="5.86 5.77 0.6 5.83 3.26 3.18 5.86 0.58 5.86 5.77" fill="none" stroke="currentColor" stroke-linejoin="round"></polygon>
    <rect x="9" y="7" width="1" height="9" fill="currentColor"></rect>
    <rect x="5" y="11" width="9" height="1" fill="currentColor"></rect>
  </symbol>
  <symbol xmlns="http://www.w3.org/2000/svg" xmlns:xlink="http://www.w3.org/1999/xlink" viewBox="0 0 8.68 11.42" id="ic_location">
    <path d="M4.34,0A4.34,4.34,0,0,0,0,4.34C0,6.49,2,8.29,2.36,8.63a8,8,0,0,1,2,2.79,8,8,0,0,1,2-2.79c.33-.34,2.36-2.14,2.36-4.29A4.34,4.34,0,0,0,4.34,0m0,6.43A2.09,2.09,0,1,1,6.43,4.34,2.1,2.1,0,0,1,4.34,6.43" fill="currentColor"></path>
    <path d="M4.34,3.11A1.23,1.23,0,1,0,5.57,4.34,1.23,1.23,0,0,0,4.34,3.11" fill="currentColor"></path>
  </symbol>
  <symbol xmlns="http://www.w3.org/2000/svg" xmlns:xlink="http://www.w3.org/1999/xlink" viewBox="0 0 30.75 31.48" id="ic_order">
    <path d="M0,2.88V20.13A2.88,2.88,0,0,0,2.88,23H5.75a1.73,1.73,0,0,1,1.73,1.73v5.08a1.63,1.63,0,0,0,1.15,1.6,1.54,1.54,0,0,0,1.72-.57l7.23-7.12A1.72,1.72,0,0,1,19,23h8.9a2.87,2.87,0,0,0,2.87-2.87V2.88A2.87,2.87,0,0,0,27.88,0h-25A2.88,2.88,0,0,0,0,2.88" fill="currentColor"></path>
    <path d="M13.05,16.28,9.29,12.53a.82.82,0,0,1,0-1.16l1-1a.82.82,0,0,1,1.16,0L13.05,12a.82.82,0,0,0,1.16,0l5.13-5.13a.82.82,0,0,1,1.16,0l1,1a.82.82,0,0,1,0,1.16l-7.25,7.25a.82.82,0,0,1-1.16,0" fill="#fff"></path>
  </symbol>
  <symbol xmlns="http://www.w3.org/2000/svg" xmlns:xlink="http://www.w3.org/1999/xlink" viewBox="0 0 20.49 21.85" id="ic_phone">
    <path d="M19.67,17.4l-4.12-3.92a1,1,0,0,0-.65-.27,1,1,0,0,0-.75.25l-1,.93A2.26,2.26,0,0,1,10.33,14L7.46,10.92c-.79-1-.78-1.93-.16-2.63.26-.23.9-.93,1.16-1.16a1.07,1.07,0,0,0,.34-.72,1,1,0,0,0-.25-.75L5,.93A1.09,1.09,0,0,0,4.15.5a1.08,1.08,0,0,0-.87.38L3.21,1C2.34,2,.47,3.5.5,6c.07,5.1,9.26,15.07,13.73,15.36,1.38.09,2.75-.25,5.32-2.33a1.07,1.07,0,0,0,.44-.8A1,1,0,0,0,19.67,17.4Z" fill="none" stroke="currentColor" stroke-miterlimit="10"></path>
    <path d="M17.23,9.4h0a.5.5,0,0,1-.7,0l-3.59-4a.5.5,0,0,1,0-.71.51.51,0,0,1,.71,0l3.58,4a.5.5,0,0,1,0,.71" fill="currentColor"></path>
    <path d="M20,8.76h0a.48.48,0,0,1-.7,0l-5.37-6A.5.5,0,1,1,14.62,2l5.37,6a.48.48,0,0,1,0,.7" fill="currentColor"></path>
  </symbol>
  <symbol xmlns="http://www.w3.org/2000/svg" xmlns:xlink="http://www.w3.org/1999/xlink" viewBox="0 0 19.49 20.85" id="ic_phone2">
    <path d="M19.17,16.9,15.05,13a1,1,0,0,0-.65-.27,1,1,0,0,0-.75.25l-1,.93a2.26,2.26,0,0,1-2.83-.36L7,10.42c-.79-1-.78-1.93-.16-2.63.26-.23.9-.93,1.16-1.16a1.07,1.07,0,0,0,.34-.72,1,1,0,0,0-.25-.75L4.45.43A1.09,1.09,0,0,0,3.65,0a1.08,1.08,0,0,0-.87.38L2.71.46C1.84,1.52,0,3,0,5.48c.07,5.1,9.26,15.07,13.73,15.36,1.38.09,2.75-.25,5.32-2.33a1.07,1.07,0,0,0,.44-.8,1,1,0,0,0-.32-.81" fill="currentColor"></path>
    <path d="M15.37,9.59h0a.48.48,0,0,1-.7,0l-3.59-4a.48.48,0,0,1,0-.7.5.5,0,0,1,.71,0l3.58,4a.48.48,0,0,1,0,.7" fill="currentColor"></path>
    <path d="M18.09,9h0a.5.5,0,0,1-.7,0L12,2.9a.5.5,0,1,1,.74-.66l5.37,6a.5.5,0,0,1,0,.71" fill="currentColor"></path>
  </symbol>
  <symbol xmlns="http://www.w3.org/2000/svg" xmlns:xlink="http://www.w3.org/1999/xlink" viewBox="0 0 21.65 21.65" id="ic_search">
    <path d="M12.94,1A7.71,7.71,0,1,1,5.23,8.71,7.72,7.72,0,0,1,12.94,1m0-1a8.71,8.71,0,1,0,8.71,8.71A8.71,8.71,0,0,0,12.94,0" fill="currentColor"></path>
    <line x1="7.04" y1="14.6" x2="0.5" y2="21.15" fill="none" stroke="currentColor" stroke-linecap="round" stroke-linejoin="round"></line>
  </symbol>
  <symbol xmlns="http://www.w3.org/2000/svg" xmlns:xlink="http://www.w3.org/1999/xlink" viewBox="0 0 25.79 21.79" id="ic_telegram">
    <path d="M25.22,2.39,21.48,20c-.28,1.24-1,1.55-2.06,1l-5.7-4.2L11,19.45A1.43,1.43,0,0,1,9.82,20l.41-5.81L20.8,4.66c.46-.41-.1-.64-.72-.23L7,12.65,1.4,10.89C.17,10.51.15,9.67,1.65,9.08l22-8.47C24.66.23,25.56.84,25.22,2.39Z" fill="none" stroke="currentColor" stroke-miterlimit="10"></path>
  </symbol>
  <symbol xmlns="http://www.w3.org/2000/svg" xmlns:xlink="http://www.w3.org/1999/xlink" viewBox="0 0 24.47 20.52" id="ic_telegram2">
    <path d="M24.4,1.87,20.71,19.28c-.28,1.23-1,1.54-2,1L13,16.09,10.33,18.7a1.42,1.42,0,0,1-1.13.56l.4-5.73L20,4.1c.45-.4-.1-.63-.71-.22L6.43,12,.88,10.26c-1.2-.38-1.23-1.21.25-1.79L22.84.11c1-.38,1.89.22,1.56,1.76" fill="currentColor"></path>
  </symbol>
  <symbol xmlns="http://www.w3.org/2000/svg" xmlns:xlink="http://www.w3.org/1999/xlink" viewBox="0 0 19.75 20.84" id="ic_video_play">
    <path d="M1.66,20.71l17.49-9.29a1.13,1.13,0,0,0,0-2L1.66.13A1.13,1.13,0,0,0,0,1.13V19.71a1.14,1.14,0,0,0,1.66,1" fill="currentColor"></path>
  </symbol>
  <symbol xmlns="http://www.w3.org/2000/svg" xmlns:xlink="http://www.w3.org/1999/xlink" viewBox="0 0 21.21 21.2" id="ic_whatsapp">
    <path d="M17.8,3.41a10,10,0,0,0-17,7,9.85,9.85,0,0,0,1.33,4.95L.71,20.5,6,19.12a10,10,0,0,0,4.76,1.21h0a10,10,0,0,0,10-9.91A9.82,9.82,0,0,0,17.8,3.41ZM16.23,13.88a2.74,2.74,0,0,1-1.78,1.25A3.74,3.74,0,0,1,12.79,15a14.41,14.41,0,0,1-1.51-.55,11.69,11.69,0,0,1-4.51-4A5.07,5.07,0,0,1,5.69,7.78a2.94,2.94,0,0,1,.93-2.19,1,1,0,0,1,.7-.33h.51c.16,0,.38-.06.59.45s.75,1.82.82,2a.5.5,0,0,1,0,.46A1.53,1.53,0,0,1,9,8.57,4.9,4.9,0,0,1,8.6,9c-.13.13-.27.28-.12.54A8.42,8.42,0,0,0,10,11.39a7.33,7.33,0,0,0,2.12,1.3c.27.14.42.11.58-.06s.66-.77.83-1,.35-.22.6-.13,1.54.72,1.8.85.44.2.51.31A2.28,2.28,0,0,1,16.23,13.88Z" fill="none" stroke="currentColor" stroke-miterlimit="10"></path>
  </symbol>
  <symbol xmlns="http://www.w3.org/2000/svg" xmlns:xlink="http://www.w3.org/1999/xlink" viewBox="0 0 19.9 20" id="ic_whatsapp2">
    <path d="M17,2.91A9.8,9.8,0,0,0,10,0,9.9,9.9,0,0,0,1.41,14.86L0,20l5.25-1.38A9.91,9.91,0,0,0,10,19.83h0A9.92,9.92,0,0,0,19.9,9.92a9.77,9.77,0,0,0-2.9-7M14.84,13.45a2.52,2.52,0,0,1-1.67,1.18,3.43,3.43,0,0,1-1.56-.1A14.3,14.3,0,0,1,10.2,14,11,11,0,0,1,6,10.27,4.86,4.86,0,0,1,5,7.71a2.82,2.82,0,0,1,.86-2.07.92.92,0,0,1,.67-.31H7c.15,0,.36-.06.56.43s.7,1.71.76,1.84A.46.46,0,0,1,8.3,8a1.46,1.46,0,0,1-.25.41c-.12.15-.26.33-.37.44s-.25.25-.11.5A7.87,7.87,0,0,0,9,11.11a7.19,7.19,0,0,0,2,1.23c.25.12.39.1.54-.07s.62-.72.78-1,.33-.2.56-.12,1.44.68,1.69.8.42.19.48.29a2.08,2.08,0,0,1-.15,1.18" fill="currentColor" fill-rule="evenodd"></path>
  </symbol>
  <symbol xmlns="http://www.w3.org/2000/svg" xmlns:xlink="http://www.w3.org/1999/xlink" viewBox="0 0 24.92 17.51" id="ic_youtube">
    <path d="M12.62,17.51c-2.8-.08-5.46-.15-8.13-.26A9,9,0,0,1,2.78,17,2.86,2.86,0,0,1,.63,15.1a10.33,10.33,0,0,1-.49-2.57A50.49,50.49,0,0,1,.05,6.38,15.4,15.4,0,0,1,.44,2.93a3.51,3.51,0,0,1,1-1.81,3.11,3.11,0,0,1,2-.86C5.51.16,7.6,0,9.7,0c2.83,0,5.65,0,8.48.06a34.43,34.43,0,0,1,3.66.25,2.85,2.85,0,0,1,2.38,1.84,8.49,8.49,0,0,1,.54,2.58,49.06,49.06,0,0,1,.09,6.64,14,14,0,0,1-.43,3.34A3.09,3.09,0,0,1,22,17.09a8.75,8.75,0,0,1-1.54.17l-7.85.25M9.91,11.94l6.7-3.48L9.91,5Z" fill="currentColor"></path>
  </symbol>
</svg>